<svg width="64" height="64" viewBox="0 0 64 64" fill="none" xmlns="http://www.w3.org/2000/svg">
<rect x="4" y="7" width="57" height="41" fill="#1C1C1C"/>
<path d="M11.3152 34.9082H19.5942L15.5085 24.5862L11.3152 34.9082Z" fill="#FBFBFB"/>
<path d="M40.9462 44.3341H41.5913C43.7417 44.3341 45.6054 43.8443 47.1824 42.8646C48.7832 41.885 50.0257 40.4275 50.9097 38.4922C51.7938 36.5568 52.2358 34.1675 52.2358 31.3242C52.2358 28.4809 51.7938 26.1035 50.9097 24.192C50.0257 22.2805 48.7832 20.8469 47.1824 19.8912C45.6054 18.9116 43.7417 18.4218 41.5913 18.4218H38.4374V41.7894C38.4374 42.554 38.6166 43.1753 38.975 43.6531C39.3573 44.1071 40.0144 44.3341 40.9462 44.3341Z" fill="#FBFBFB"/>
<path fill-rule="evenodd" clip-rule="evenodd" d="M0 0H64V47.2258L47.2258 64H0V0ZM4.89984 44.8V44.4416C5.35381 44.3938 5.80779 44.1788 6.26176 43.7965C6.73963 43.3903 7.18165 42.8885 7.58784 42.2912C7.99403 41.6939 8.30464 41.1085 8.51968 40.535L17.9814 17.3824H18.304L27.6224 40.535C28.5521 42.8382 29.5753 44.123 30.6918 44.3893C31.2666 44.2952 31.7458 44.0736 32.1296 43.7248C32.6552 43.2469 32.918 42.6018 32.918 41.7894V20.9664C32.918 20.154 32.6433 19.5089 32.0937 19.031C31.5681 18.5293 30.8871 18.2784 30.0508 18.2784V17.92H41.5913C44.9603 17.92 47.8992 18.4337 50.408 19.4611C52.9168 20.4646 54.8641 21.9699 56.2499 23.977C57.6357 25.984 58.3286 28.457 58.3286 31.3958C58.3286 34.3347 57.6237 36.7957 56.214 38.7789C54.8282 40.762 52.8809 42.2673 50.3721 43.2947C47.8633 44.2982 44.9364 44.8 41.5913 44.8H19.7734V44.4416H19.9168C20.992 44.4416 21.7088 44.119 22.0672 43.4739C22.4495 42.8049 22.4017 41.885 21.9238 40.7142L19.7734 35.3741H11.136L9.12896 40.3558C8.69888 41.3833 8.74667 42.3151 9.27232 43.1514C9.82187 43.9637 10.694 44.3938 11.8886 44.4416V44.8H4.89984Z" fill="#FBFBFB"/>
</svg>
