<svg width="40" height="86" viewBox="0 0 40 86" fill="none" xmlns="http://www.w3.org/2000/svg">
<g clip-path="url(#clip0_103_2685)">
<path d="M26.0363 46.731C28.9168 40.9747 34.4167 28.2781 34.4167 23.1976C34.4167 18.1172 34.0765 15.9172 31.9604 14.0528C31.3684 10.3286 30.096 7.19645 34.4167 4.65621C38.7375 2.11596 39.7489 1.61258 39.7489 1.61258C39.7489 1.61258 31.3684 1.36088 31.2006 1.10453C31.0328 0.848174 29.1684 0.0884322 26.9638 -0.000126713C24.7591 -0.0886856 17.9914 1.60792 15.7028 5.33205C13.4143 9.05618 12.5706 12.1045 11.0465 12.8642C9.52235 13.624 2.49824 18.4527 1.64993 29.4574C0.801633 40.462 0.125787 44.27 1.14188 52.4827C2.15798 60.6953 2.24188 64.3356 2.24188 65.9436C2.24188 67.5517 -0.638616 78.9804 0.125787 83.3804C0.89019 87.7804 2.58213 85.5804 3.00628 84.2287C5.20627 85.9906 9.69481 84.3965 9.9465 78.8965C10.1982 73.3966 11.3029 65.7758 11.3029 65.7758C11.3029 65.7758 17.777 58.7517 19.8744 55.8712C21.9719 52.9907 26.0316 46.7263 26.0316 46.7263L26.0363 46.731Z" fill="#3C3C3C"/>
</g>
<defs>
<clipPath id="clip0_103_2685">
<rect width="39.749" height="86" fill="white" transform="matrix(-1 0 0 1 39.7489 0)"/>
</clipPath>
</defs>
</svg>
