<svg width="105" height="90" viewBox="0 0 105 90" fill="none" xmlns="http://www.w3.org/2000/svg">
<path d="M69 88.7556L62.7735 83.354V82.3566L61.1125 80.7767V79.8617L58.9548 78.117C58.9548 78.117 58.7049 76.2047 58.458 75.5398C58.2111 74.8748 58.458 74.46 58.458 74.46L56.6324 71.3032L58.2111 72.3006C58.2111 72.3006 57.7144 70.3882 56.6324 69.5586C55.5505 68.729 54.307 67.8963 54.307 67.8963L56.2179 68.3935L54.8068 67.2314H57.1322C57.1322 67.2314 55.139 65.5692 54.7246 65.2367C54.3101 64.9043 53.8102 62.6594 53.0636 61.8298C52.3169 61.0002 52.899 59.5026 51.1526 57.6757C49.4063 55.8487 47.2516 52.9389 43.762 52.0239C40.2724 51.1089 40.9398 50.7765 40.9398 50.7765L41.3543 49.8615L40.2754 48.614V48.1168L39.3611 47.5343L40.0255 46.7047L39.3611 46.1221L40.1901 45.4572L37.118 44.7923H40.2723L38.6114 44.3775L40.6045 43.8803L38.4468 43.4655L40.7722 42.6359C40.7722 42.6359 38.8613 42.6359 37.118 42.9684C38.5291 41.971 39.2758 41.5562 39.2758 41.5562C39.2758 41.5562 36.286 41.3915 34.8749 42.3035C36.8681 40.3911 37.947 39.229 37.947 39.229L34.2928 41.2237L36.7827 37.5667L35.204 39.0613L36.033 37.5667L32.711 39.8939L35.6185 35.9045L33.8752 36.9842L35.1217 35.1572L34.7072 34.66L33.6284 35.4897L33.7929 33.2448L30.3886 36.9842H28.8953L31.303 34.5746L31.5529 33.2448L30.1418 33.9921C30.1418 33.9921 32.4672 31 32.135 31C31.8028 31 29.4774 32.5799 28.8953 32.7446C28.3132 32.9093 26.9021 34.0744 26.9021 34.0744H25.5733L23.4155 36.6517L27.4019 31.6649L22.3366 36.6517L21.0078 37.5667L23.3332 33.4126L20.0112 37.9815V36.8195C20.0112 36.8195 18.7647 38.8142 18.018 40.7235C17.2713 42.6329 15.8602 43.6333 14.8636 46.7077C10.7127 48.0375 1.26412e-06 51.112 1.26412e-06 51.112C1.26412e-06 51.112 13.1204 52.5241 13.4495 52.5241C13.7787 52.5241 16.0248 54.2688 17.186 55.5162C17.186 55.5162 15.6926 57.3432 15.6073 59.8778C15.522 62.4124 14.3608 67.4815 21.5015 75.5398C28.6423 83.598 31.9643 84.9308 31.9643 84.9308C31.9643 84.9308 39.5196 85.0955 43.4237 84.6807C47.3278 84.2659 52.9721 86.343 52.9721 86.343L57.2907 86.9256L56.9585 84.5984L63.6025 90H66.0925L65.9279 89.2527L67.339 90L69 89.6675V88.7525L69 88.7556Z" fill="#3C3C3C"/>
</svg>
