<svg width="45" height="30" viewBox="0 0 45 30" fill="none" xmlns="http://www.w3.org/2000/svg">
<path d="M0.922497 1.92163C0.350581 2.69789 0 3.65027 0 4.68735V25.3125C0 26.3082 0.316718 27.2289 0.847523 27.9882L16.3259 14.121L0.922497 1.92163Z" fill="#FBFBFB"/>
<path d="M42.6599 0.654466C41.9662 0.24954 41.1711 0 40.3126 0H4.68796C3.8291 0 3.03405 0.249548 2.34033 0.654466L22.5003 16.6165L42.6599 0.654466Z" fill="#FBFBFB"/>
<path d="M44.0773 1.92154L28.6721 14.1205L44.1505 27.9877C44.6831 27.2281 44.9998 26.3074 44.9998 25.3117V4.68654C44.9998 3.64978 44.6492 2.69739 44.0773 1.92114V1.92154Z" fill="#FBFBFB"/>
<path d="M23.0834 18.5475C22.9127 18.6824 22.7046 18.7499 22.5002 18.7499C22.2959 18.7499 22.0877 18.6824 21.917 18.5475L17.8181 15.3018L2.21606 29.2798C2.93802 29.7281 3.77804 29.9999 4.68736 29.9999H40.312C41.2213 29.9999 42.0613 29.7281 42.7813 29.2798L27.1792 15.3018L23.0834 18.5475Z" fill="#FBFBFB"/>
</svg>
