<svg width="80" height="80" viewBox="0 0 80 80" fill="none" xmlns="http://www.w3.org/2000/svg">
<path fill-rule="evenodd" clip-rule="evenodd" d="M40 0C17.9086 0 0 17.9086 0 40C0 62.0914 17.9086 80 40 80C62.0914 80 80 62.0914 80 40C80 17.9086 62.0914 0 40 0ZM19.2027 33.1297H28.2676V60.3659H19.2027V33.1297ZM28.8646 24.7045C28.8058 22.034 26.8961 20 23.7951 20C20.694 20 18.6667 22.034 18.6667 24.7045C18.6667 27.3197 20.6341 29.4122 23.6774 29.4122H23.7353C26.8961 29.4122 28.8646 27.3197 28.8646 24.7045ZM50.5219 32.4902C56.487 32.4902 60.959 36.3838 60.959 44.7495L60.9586 60.3659H51.8941V45.7946C51.8941 42.1345 50.5824 39.637 47.3008 39.637C44.7965 39.637 43.3048 41.3207 42.6496 42.9469C42.41 43.5297 42.3511 44.3417 42.3511 45.1557V60.3667H33.2852C33.2852 60.3667 33.4046 35.6862 33.2852 33.1305H42.3511V36.9882C43.5543 35.1337 45.709 32.4902 50.5219 32.4902Z" fill="url(#paint0_linear_4_65)"/>
<defs>
<linearGradient id="paint0_linear_4_65" x1="40" y1="0" x2="40" y2="80" gradientUnits="userSpaceOnUse">
<stop stop-color="#3A5DDC"/>
<stop offset="1" stop-color="#997ADD"/>
</linearGradient>
</defs>
</svg>
