<svg width="40" height="37" viewBox="0 0 40 37" fill="none" xmlns="http://www.w3.org/2000/svg">
<path d="M8.43956 11.2529H0V36.5716H8.43956V11.2529Z" fill="white"/>
<path d="M4.92308 8.43956C7.64202 8.43956 9.84615 6.5503 9.84615 4.21978C9.84615 1.88926 7.64202 0 4.92308 0C2.20414 0 0 1.88926 0 4.21978C0 6.5503 2.20414 8.43956 4.92308 8.43956Z" fill="white"/>
<path d="M29.5384 11.2529H28.7944C25.7181 11.2529 23.1666 13.4641 22.6222 16.3828H22.5055V11.2529H14.0659V36.5716H22.5055V24.4918V22.3411C22.5153 21.808 22.5575 21.3157 22.6236 20.8501C23.0569 18.9794 24.7237 17.5826 26.7253 17.5826C29.056 17.5826 30.945 19.4717 30.945 21.8024V22.5887V24.2428V36.5716H39.3846V23.7463V22.5887V21.0991C39.3846 15.6612 34.9763 11.2529 29.5384 11.2529Z" fill="white"/>
</svg>
