<svg width="33" height="41" viewBox="0 0 33 41" fill="none" xmlns="http://www.w3.org/2000/svg">
<path d="M24.75 0H2.0625C0.824926 0 0 0.819927 0 2.05V38.95C0 40.1801 0.824926 41 2.0625 41H30.9375C32.1751 41 33 40.1801 33 38.95V8.2L24.75 0ZM16.5 6.15C18.7688 6.15 20.625 7.99493 20.625 10.25C20.625 12.5051 18.7688 14.35 16.5 14.35C14.2312 14.35 12.375 12.5051 12.375 10.25C12.375 7.99493 14.2312 6.15 16.5 6.15ZM16.5 16.4C21.0376 16.4 24.75 20.0899 24.75 24.6H8.25C8.25 20.0899 11.9624 16.4 16.5 16.4ZM26.8125 34.85H6.1875C4.94993 34.85 4.125 34.0301 4.125 32.8C4.125 31.5699 4.94993 30.75 6.1875 30.75H26.8125C28.0501 30.75 28.875 31.5699 28.875 32.8C28.875 33.825 28.0501 34.85 26.8125 34.85Z" fill="#FBFBFB"/>
</svg>
